<svg xmlns="http://www.w3.org/2000/svg" version="1.1" xmlns:xlink="http://www.w3.org/1999/xlink" width="200" height="200"><svg xmlns="http://www.w3.org/2000/svg" version="1.1" xmlns:xlink="http://www.w3.org/1999/xlink" viewBox="0 0 200 200"><rect width="200" height="200" fill="url('#gradient')"></rect><defs><linearGradient id="SvgjsLinearGradient1001" gradientTransform="rotate(45 0.5 0.5)"><stop offset="0%" stop-color="#dbd4c9"></stop><stop offset="100%" stop-color="#b95232"></stop></linearGradient></defs><g><g fill="#30405d" transform="matrix(3.617710484055976,0,0,3.617710484055976,19.122683953555196,125.72129689114004)" stroke="#739bab" stroke-width="0.2"><path d="M6.69-4.82L4.50-4.82L4.50 0L1.07 0L1.07-14.22L6.75-14.22Q8.38-14.22 9.63-13.62Q10.89-13.02 11.58-11.91Q12.27-10.80 12.27-9.39L12.27-9.39Q12.27-7.31 10.78-6.07Q9.29-4.82 6.69-4.82L6.69-4.82ZM4.50-11.57L4.50-7.47L6.75-7.47Q7.74-7.47 8.27-7.97Q8.79-8.47 8.79-9.38L8.79-9.38Q8.79-10.37 8.25-10.97Q7.71-11.56 6.79-11.57L6.79-11.57L4.50-11.57ZM23.13-14.22L25.11-5.30L26.74-14.22L30.14-14.22L27.12 0L23.56 0L21.66-8.11L19.79 0L16.25 0L13.22-14.22L16.63-14.22L18.26-5.30L20.21-14.22L23.13-14.22ZM39.96 0L39.13-2.66L34.43-2.66L33.61 0L29.95 0L35.17-14.22L38.39-14.22L43.64 0L39.96 0ZM36.78-10.23L35.25-5.30L38.31-5.30L36.78-10.23Z"></path></g></g></svg><style>@media (prefers-color-scheme: light) { :root { filter: none; } }
@media (prefers-color-scheme: dark) { :root { filter: none; } }
</style></svg>